<?xml version="1.0" standalone="no"?>
<!DOCTYPE svg PUBLIC "-//W3C//DTD SVG 20010904//EN"
 "http://www.w3.org/TR/2001/REC-SVG-20010904/DTD/svg10.dtd">
<svg version="1.0" xmlns="http://www.w3.org/2000/svg"
 width="512.000000pt" height="512.000000pt" viewBox="0 0 512.000000 512.000000"
 preserveAspectRatio="xMidYMid meet">
<metadata>
Created by potrace 1.14, written by Peter Selinger 2001-2017
</metadata>
<g transform="translate(0.000000,512.000000) scale(0.100000,-0.100000)"
fill="#000000" stroke="none">
<path d="M351 5104 c-172 -46 -307 -189 -340 -359 -13 -67 -14 -4302 -1 -4370
34 -176 188 -330 365 -364 32 -7 846 -10 2195 -10 1836 0 2153 3 2199 15 158
42 287 167 332 319 21 75 21 4375 0 4450 -39 135 -147 251 -286 306 l-60 24
-2175 2 c-1875 2 -2182 0 -2229 -13z m969 -574 c161 -49 286 -164 348 -320
112 -283 -38 -613 -326 -714 -137 -49 -308 -34 -441 38 -85 45 -184 149 -226
237 -76 160 -73 340 8 494 80 154 243 266 417 288 55 6 158 -4 220 -23z m2485
-1265 c282 -42 501 -197 624 -442 32 -65 69 -157 75 -190 2 -10 11 -45 19 -78
20 -76 26 -109 32 -165 3 -25 7 -58 10 -75 13 -81 17 -340 18 -965 0 -752 2
-724 -60 -766 -26 -17 -53 -19 -369 -19 -375 0 -377 0 -414 61 -19 30 -20 56
-23 770 -3 719 -4 741 -24 816 -27 97 -64 168 -113 222 -44 47 -119 92 -170
101 -18 3 -37 8 -42 11 -4 3 -43 5 -86 5 -222 0 -372 -130 -440 -381 -11 -41
-23 -94 -27 -117 -4 -24 -7 -344 -7 -712 0 -737 2 -709 -61 -755 -27 -20 -40
-21 -361 -21 -364 0 -362 0 -403 62 -17 26 -18 100 -18 1267 -1 1185 0 1242
18 1277 32 66 43 68 401 68 354 1 368 -1 404 -63 16 -28 19 -51 18 -150 l-1
-117 39 48 c58 70 152 159 194 182 126 71 222 104 362 125 89 13 320 14 405 1z
m-2282 -48 c15 -9 34 -32 44 -50 16 -30 17 -120 18 -1262 0 -1194 0 -1231 -19
-1269 -35 -69 -48 -72 -414 -71 -307 1 -323 2 -349 21 -16 11 -36 36 -45 55
-17 32 -18 112 -18 1256 0 1362 -4 1280 68 1321 35 20 48 20 362 19 292 -2
329 -4 353 -20z"/>
</g>
</svg>
